<svg id="visual" viewBox="0 0 900 600" width="900" height="600" xmlns="http://www.w3.org/2000/svg" xmlns:xlink="http://www.w3.org/1999/xlink" version="1.1"><rect x="0" y="0" width="900" height="600" fill="#130007"></rect><path d="M0 357L18.8 364C37.7 371 75.3 385 112.8 390.7C150.3 396.3 187.7 393.7 225.2 384.3C262.7 375 300.3 359 337.8 341.3C375.3 323.7 412.7 304.3 450.2 319.5C487.7 334.7 525.3 384.3 562.8 391.2C600.3 398 637.7 362 675.2 344.2C712.7 326.3 750.3 326.7 787.8 331.8C825.3 337 862.7 347 881.3 352L900 357L900 601L881.3 601C862.7 601 825.3 601 787.8 601C750.3 601 712.7 601 675.2 601C637.7 601 600.3 601 562.8 601C525.3 601 487.7 601 450.2 601C412.7 601 375.3 601 337.8 601C300.3 601 262.7 601 225.2 601C187.7 601 150.3 601 112.8 601C75.3 601 37.7 601 18.8 601L0 601Z" fill="#70012b"></path><path d="M0 459L18.8 438.8C37.7 418.7 75.3 378.3 112.8 365C150.3 351.7 187.7 365.3 225.2 383.7C262.7 402 300.3 425 337.8 415.8C375.3 406.7 412.7 365.3 450.2 353.3C487.7 341.3 525.3 358.7 562.8 364.7C600.3 370.7 637.7 365.3 675.2 370.5C712.7 375.7 750.3 391.3 787.8 391C825.3 390.7 862.7 374.3 881.3 366.2L900 358L900 601L881.3 601C862.7 601 825.3 601 787.8 601C750.3 601 712.7 601 675.2 601C637.7 601 600.3 601 562.8 601C525.3 601 487.7 601 450.2 601C412.7 601 375.3 601 337.8 601C300.3 601 262.7 601 225.2 601C187.7 601 150.3 601 112.8 601C75.3 601 37.7 601 18.8 601L0 601Z" fill="#5c0827"></path><path d="M0 478L18.8 478.8C37.7 479.7 75.3 481.3 112.8 480.3C150.3 479.3 187.7 475.7 225.2 470.8C262.7 466 300.3 460 337.8 451.3C375.3 442.7 412.7 431.3 450.2 422.7C487.7 414 525.3 408 562.8 419.2C600.3 430.3 637.7 458.7 675.2 467C712.7 475.3 750.3 463.7 787.8 455.7C825.3 447.7 862.7 443.3 881.3 441.2L900 439L900 601L881.3 601C862.7 601 825.3 601 787.8 601C750.3 601 712.7 601 675.2 601C637.7 601 600.3 601 562.8 601C525.3 601 487.7 601 450.2 601C412.7 601 375.3 601 337.8 601C300.3 601 262.7 601 225.2 601C187.7 601 150.3 601 112.8 601C75.3 601 37.7 601 18.8 601L0 601Z" fill="#480b22"></path><path d="M0 453L18.8 449.7C37.7 446.3 75.3 439.7 112.8 435.3C150.3 431 187.7 429 225.2 439.8C262.7 450.7 300.3 474.3 337.8 487C375.3 499.7 412.7 501.3 450.2 502.7C487.7 504 525.3 505 562.8 495.7C600.3 486.3 637.7 466.7 675.2 457C712.7 447.3 750.3 447.7 787.8 442.7C825.3 437.7 862.7 427.3 881.3 422.2L900 417L900 601L881.3 601C862.7 601 825.3 601 787.8 601C750.3 601 712.7 601 675.2 601C637.7 601 600.3 601 562.8 601C525.3 601 487.7 601 450.2 601C412.7 601 375.3 601 337.8 601C300.3 601 262.7 601 225.2 601C187.7 601 150.3 601 112.8 601C75.3 601 37.7 601 18.8 601L0 601Z" fill="#360c1c"></path><path d="M0 524L18.8 516.8C37.7 509.7 75.3 495.3 112.8 497.8C150.3 500.3 187.7 519.7 225.2 531.8C262.7 544 300.3 549 337.8 540C375.3 531 412.7 508 450.2 501.7C487.7 495.3 525.3 505.7 562.8 513.3C600.3 521 637.7 526 675.2 521.3C712.7 516.7 750.3 502.3 787.8 498.3C825.3 494.3 862.7 500.7 881.3 503.8L900 507L900 601L881.3 601C862.7 601 825.3 601 787.8 601C750.3 601 712.7 601 675.2 601C637.7 601 600.3 601 562.8 601C525.3 601 487.7 601 450.2 601C412.7 601 375.3 601 337.8 601C300.3 601 262.7 601 225.2 601C187.7 601 150.3 601 112.8 601C75.3 601 37.7 601 18.8 601L0 601Z" fill="#240914"></path><path d="M0 536L18.8 537.8C37.7 539.7 75.3 543.3 112.8 548.5C150.3 553.7 187.7 560.3 225.2 563.5C262.7 566.7 300.3 566.3 337.8 558C375.3 549.7 412.7 533.3 450.2 535.2C487.7 537 525.3 557 562.8 565.5C600.3 574 637.7 571 675.2 563.7C712.7 556.3 750.3 544.7 787.8 541.8C825.3 539 862.7 545 881.3 548L900 551L900 601L881.3 601C862.7 601 825.3 601 787.8 601C750.3 601 712.7 601 675.2 601C637.7 601 600.3 601 562.8 601C525.3 601 487.7 601 450.2 601C412.7 601 375.3 601 337.8 601C300.3 601 262.7 601 225.2 601C187.7 601 150.3 601 112.8 601C75.3 601 37.7 601 18.8 601L0 601Z" fill="#130007"></path></svg>