<?xml version="1.0" standalone="no"?><svg xmlns:xlink="http://www.w3.org/1999/xlink" xmlns="http://www.w3.org/2000/svg" viewBox="0 0 1000 583.3412660637792" preserveAspectRatio="xMaxYMax slice"><g transform="scale(1.2692368713311122)"><rect x="0" y="0" width="787.8857142857144" height="459.6" fill="#1d1c38"/><rect x="0" y="0" width="65.66" height="65.66" fill="#453224"/><rect x="0" y="0" width="65.66" height="65.66" fill="#1d1c38"/><rect x="65.66" y="0" width="65.66" height="65.66" fill="#1d1c38"/><rect x="65.66" y="0" width="65.66" height="65.66" fill="#1f1f38"/><rect x="131.31" y="0" width="65.66" height="65.66" fill="#272233"/><polygon points="131.31,0 196.97,65.66 131.31,65.66" fill="#aea179"/><rect x="196.97" y="0" width="65.66" height="65.66" fill="#31433c"/><polygon points="196.97,0 262.63,0 262.63,65.66" fill="#34483c"/><rect x="262.63" y="0" width="65.66" height="65.66" fill="#1d1c38"/><path d="M 262.63 65.66 A 65.66 65.66 0 0 1  328.28999999999996 0 L 262.63 65.66 A 65.66 65.66 0 0 0 328.28999999999996 0" fill="#362a2c"/><rect x="328.29" y="0" width="65.66" height="65.66" fill="#382b2a"/><path d="M 328.29 65.66 A 65.66 65.66 0 0 1  393.95000000000005 0 L 393.95000000000005 65.66L328.29 65.66" fill="#e3d391"/><rect x="393.94" y="0" width="65.66" height="65.66" fill="#212439"/><polygon points="393.94,0 459.6,0 393.94,65.66" fill="#2b2431"/><rect x="459.6" y="0" width="65.66" height="65.66" fill="#403026"/><path d="M 459.6 0 A 65.66 65.66 0 0 1 525.26 65.66 L 459.6 65.66L459.6 0" fill="#d6c68b"/><rect x="525.26" y="0" width="65.66" height="65.66" fill="#1d1c38"/><rect x="525.26" y="0" width="65.66" height="65.66" fill="#282232"/><rect x="590.91" y="0" width="65.66" height="65.66" fill="#1d1c38"/><rect x="590.91" y="0" width="65.66" height="65.66" fill="#1e1e38"/><rect x="656.57" y="0" width="65.66" height="65.66" fill="#483422"/><path d="M 656.57 65.66 A 65.66 65.66 0 0 1  722.23 0 L 656.57 65.66 A 65.66 65.66 0 0 0 722.23 0" fill="#2d3a3b"/><rect x="722.23" y="0" width="65.66" height="65.66" fill="#3b553e"/><path d="M 722.23 0 A 65.66 65.66 0 0 1 787.89 65.66 L 722.23 65.66L722.23 0" fill="#665f59"/><rect x="0" y="65.66" width="65.66" height="65.66" fill="#dccc8e"/><rect x="0" y="65.66" width="65.66" height="65.66" fill="#2a283e"/><rect x="65.66" y="65.66" width="65.66" height="65.66" fill="#3b553e"/><polygon points="65.66,65.66 131.32,65.66 65.66,131.32" fill="#362a2c"/><rect x="131.31" y="65.66" width="65.66" height="65.66" fill="#262d3a"/><polygon points="131.31,65.66 196.97,65.66 131.31,131.32" fill="#292332"/><rect x="196.97" y="65.66" width="65.66" height="65.66" fill="#2f262f"/><path d="M 196.97 131.32 A 65.66 65.66 0 0 0 262.63 65.66 L 196.97 65.66L196.97 131.32" fill="#212339"/><rect x="262.63" y="65.66" width="65.66" height="65.66" fill="#202139"/><polygon points="262.63,65.66 328.28999999999996,65.66 262.63,131.32" fill="#242a39"/><rect x="328.29" y="65.66" width="65.66" height="65.66" fill="#33463c"/><rect x="328.29" y="65.66" width="65.66" height="65.66" fill="#201d37"/><rect x="393.94" y="65.66" width="65.66" height="65.66" fill="#1d1c38"/><polygon points="459.6,65.66 459.6,131.32 393.94,131.32" fill="#1d1c38"/><rect x="459.6" y="65.66" width="65.66" height="65.66" fill="#e0cf8f"/><rect x="459.6" y="65.66" width="65.66" height="65.66" fill="#292332"/><rect x="525.26" y="65.66" width="65.66" height="65.66" fill="#1d1c38"/><path d="M 525.26 131.32 A 65.66 65.66 0 0 1  590.92 65.66 L 590.92 131.32L525.26 131.32" fill="#201e37"/><rect x="590.91" y="65.66" width="65.66" height="65.66" fill="#2a343a"/><rect x="590.91" y="65.66" width="65.66" height="65.66" fill="#3c3946"/><rect x="656.57" y="65.66" width="65.66" height="65.66" fill="#252134"/><rect x="656.57" y="65.66" width="65.66" height="65.66" fill="#1d1c38"/><rect x="722.23" y="65.66" width="65.66" height="65.66" fill="#364b3d"/><rect x="722.23" y="65.66" width="65.66" height="65.66" fill="#1d1c38"/><rect x="0" y="131.31" width="65.66" height="65.66" fill="#34483c"/><rect x="0" y="131.31" width="65.66" height="65.66" fill="#212339"/><rect x="65.66" y="131.31" width="65.66" height="65.66" fill="#1d1c38"/><path d="M 65.66 196.97 A 65.66 65.66 0 0 1  131.32 131.31 L 65.66 196.97 A 65.66 65.66 0 0 0 131.32 131.31" fill="#1d1c38"/><rect x="131.31" y="131.31" width="65.66" height="65.66" fill="#1d1c38"/><path d="M 131.31 196.97 A 65.66 65.66 0 0 1  196.97 131.31 L 196.97 196.97L131.31 196.97" fill="#473423"/><rect x="196.97" y="131.31" width="65.66" height="65.66" fill="#392c2a"/><rect x="196.97" y="131.31" width="65.66" height="65.66" fill="#1d1c38"/><rect x="262.63" y="131.31" width="65.66" height="65.66" fill="#3e3a47"/><rect x="262.63" y="131.31" width="65.66" height="65.66" fill="#3c573e"/><rect x="328.29" y="131.31" width="65.66" height="65.66" fill="#1e1d37"/><path d="M 328.29 131.31 A 65.66 65.66 0 0 1  393.95000000000005 196.97 L 328.29 131.31 A 65.66 65.66 0 0 0 393.95000000000005 196.97" fill="#70695d"/><rect x="393.94" y="131.31" width="65.66" height="65.66" fill="#1d1c38"/><rect x="393.94" y="131.31" width="65.66" height="65.66" fill="#30403c"/><rect x="459.6" y="131.31" width="65.66" height="65.66" fill="#463323"/><path d="M 459.6 131.31 A 65.66 65.66 0 0 1 525.26 196.97 L 459.6 196.97L459.6 131.31" fill="#3b2d29"/><rect x="525.26" y="131.31" width="65.66" height="65.66" fill="#29333a"/><path d="M 525.26 131.31 A 65.66 65.66 0 0 0 590.92 196.97 L 590.92 131.31L525.26 131.31" fill="#766e60"/><rect x="590.91" y="131.31" width="65.66" height="65.66" fill="#1d1c38"/><polygon points="590.91,131.31 656.5699999999999,131.31 656.5699999999999,196.97" fill="#202239"/><rect x="656.57" y="131.31" width="65.66" height="65.66" fill="#1d1c38"/><polygon points="656.57,131.31 722.23,131.31 722.23,196.97" fill="#1d1c38"/><rect x="722.23" y="131.31" width="65.66" height="65.66" fill="#2b373b"/><polygon points="722.23,131.31 787.89,131.31 722.23,196.97" fill="#29333a"/><rect x="0" y="196.97" width="65.66" height="65.66" fill="#3d2e28"/><path d="M 0 262.63 A 65.66 65.66 0 0 0 65.66 196.97 L 0 196.97L0 262.63" fill="#35493d"/><rect x="65.66" y="196.97" width="65.66" height="65.66" fill="#1d1c38"/><polygon points="131.32,196.97 131.32,262.63 65.66,262.63" fill="#1d1c38"/><rect x="131.31" y="196.97" width="65.66" height="65.66" fill="#1d1c38"/><path d="M 131.31 196.97 A 65.66 65.66 0 0 1 196.97 262.63 L 131.31 262.63L131.31 196.97" fill="#1d1c38"/><rect x="196.97" y="196.97" width="65.66" height="65.66" fill="#384f3d"/><rect x="196.97" y="196.97" width="65.66" height="65.66" fill="#282232"/><rect x="262.63" y="196.97" width="65.66" height="65.66" fill="#3c563e"/><path d="M 262.63 196.97 A 65.66 65.66 0 0 1  328.28999999999996 262.63 L 262.63 196.97 A 65.66 65.66 0 0 0 328.28999999999996 262.63" fill="#1d1c38"/><rect x="328.29" y="196.97" width="65.66" height="65.66" fill="#3a3645"/><path d="M 328.29 262.63 A 65.66 65.66 0 0 1  393.95000000000005 196.97 L 328.29 262.63 A 65.66 65.66 0 0 0 393.95000000000005 196.97" fill="#382b2a"/><rect x="393.94" y="196.97" width="65.66" height="65.66" fill="#262e3a"/><rect x="393.94" y="196.97" width="65.66" height="65.66" fill="#1d1c38"/><rect x="459.6" y="196.97" width="65.66" height="65.66" fill="#3c563e"/><rect x="459.6" y="196.97" width="65.66" height="65.66" fill="#39523e"/><rect x="525.26" y="196.97" width="65.66" height="65.66" fill="#1d1c38"/><rect x="525.26" y="196.97" width="65.66" height="65.66" fill="#27303a"/><rect x="590.91" y="196.97" width="65.66" height="65.66" fill="#354a3d"/><path d="M 590.91 196.97 A 65.66 65.66 0 0 1 656.5699999999999 262.63 L 590.91 262.63L590.91 196.97" fill="#1d1c38"/><rect x="656.57" y="196.97" width="65.66" height="65.66" fill="#382b2a"/><path d="M 656.57 196.97 A 65.66 65.66 0 0 1  722.23 262.63 L 656.57 196.97 A 65.66 65.66 0 0 0 722.23 262.63" fill="#392c2a"/><rect x="722.23" y="196.97" width="65.66" height="65.66" fill="#5e5855"/><rect x="722.23" y="196.97" width="65.66" height="65.66" fill="#493522"/><rect x="0" y="262.63" width="65.66" height="65.66" fill="#27303a"/><path d="M 0 262.63 A 65.66 65.66 0 0 1 65.66 328.28999999999996 L 0 328.28999999999996L0 262.63" fill="#272f3a"/><rect x="65.66" y="262.63" width="65.66" height="65.66" fill="#382b2b"/><path d="M 65.66 262.63 A 65.66 65.66 0 0 1 131.32 328.28999999999996 L 65.66 328.28999999999996L65.66 262.63" fill="#354a3d"/><rect x="131.31" y="262.63" width="65.66" height="65.66" fill="#493522"/><polygon points="131.31,262.63 196.97,328.28999999999996 131.31,328.28999999999996" fill="#9f9472"/><rect x="196.97" y="262.63" width="65.66" height="65.66" fill="#232739"/><polygon points="196.97,262.63 262.63,262.63 196.97,328.28999999999996" fill="#221f36"/><rect x="262.63" y="262.63" width="65.66" height="65.66" fill="#867c67"/><rect x="262.63" y="262.63" width="65.66" height="65.66" fill="#1d1c38"/><rect x="328.29" y="262.63" width="65.66" height="65.66" fill="#e0cf8f"/><rect x="328.29" y="262.63" width="65.66" height="65.66" fill="#252034"/><rect x="393.94" y="262.63" width="65.66" height="65.66" fill="#34473c"/><polygon points="393.94,262.63 459.6,328.28999999999996 393.94,328.28999999999996" fill="#1d1c38"/><rect x="459.6" y="262.63" width="65.66" height="65.66" fill="#5e5855"/><polygon points="459.6,262.63 525.26,262.63 459.6,328.28999999999996" fill="#353243"/><rect x="525.26" y="262.63" width="65.66" height="65.66" fill="#daca8d"/><polygon points="525.26,262.63 590.92,262.63 525.26,328.28999999999996" fill="#2b373b"/><rect x="590.91" y="262.63" width="65.66" height="65.66" fill="#221f35"/><polygon points="590.91,262.63 656.5699999999999,262.63 590.91,328.28999999999996" fill="#201f39"/><rect x="656.57" y="262.63" width="65.66" height="65.66" fill="#363343"/><polygon points="722.23,262.63 722.23,328.28999999999996 656.57,328.28999999999996" fill="#1d1c38"/><rect x="722.23" y="262.63" width="65.66" height="65.66" fill="#f1df97"/><path d="M 722.23 328.28999999999996 A 65.66 65.66 0 0 0 787.89 262.63 L 722.23 262.63L722.23 328.28999999999996" fill="#221f35"/><rect x="0" y="328.29" width="65.66" height="65.66" fill="#362a2c"/><rect x="0" y="328.29" width="65.66" height="65.66" fill="#514c4f"/><rect x="65.66" y="328.29" width="65.66" height="65.66" fill="#1d1c38"/><polygon points="65.66,328.29 131.32,328.29 131.32,393.95000000000005" fill="#312e41"/><rect x="131.31" y="328.29" width="65.66" height="65.66" fill="#201f3a"/><rect x="131.31" y="328.29" width="65.66" height="65.66" fill="#9a8f70"/><rect x="196.97" y="328.29" width="65.66" height="65.66" fill="#1f1d37"/><rect x="196.97" y="328.29" width="65.66" height="65.66" fill="#30413c"/><rect x="262.63" y="328.29" width="65.66" height="65.66" fill="#1d1c38"/><polygon points="328.28999999999996,328.29 328.28999999999996,393.95000000000005 262.63,393.95000000000005" fill="#1d1c38"/><rect x="328.29" y="328.29" width="65.66" height="65.66" fill="#1d1c38"/><rect x="328.29" y="328.29" width="65.66" height="65.66" fill="#1d1c38"/><rect x="393.94" y="328.29" width="65.66" height="65.66" fill="#a79b76"/><rect x="393.94" y="328.29" width="65.66" height="65.66" fill="#3a533e"/><rect x="459.6" y="328.29" width="65.66" height="65.66" fill="#1d1c38"/><path d="M 459.6 328.29 A 65.66 65.66 0 0 1  525.26 393.95000000000005 L 459.6 328.29 A 65.66 65.66 0 0 0 525.26 393.95000000000005" fill="#1d1c38"/><rect x="525.26" y="328.29" width="65.66" height="65.66" fill="#1d1c38"/><path d="M 525.26 328.29 A 65.66 65.66 0 0 1  590.92 393.95000000000005 L 525.26 328.29 A 65.66 65.66 0 0 0 590.92 393.95000000000005" fill="#232739"/><rect x="590.91" y="328.29" width="65.66" height="65.66" fill="#232839"/><path d="M 590.91 393.95000000000005 A 65.66 65.66 0 0 1  656.5699999999999 328.29 L 590.91 393.95000000000005 A 65.66 65.66 0 0 0 656.5699999999999 328.29" fill="#1d1c38"/><rect x="656.57" y="328.29" width="65.66" height="65.66" fill="#282232"/><polygon points="722.23,328.29 722.23,393.95000000000005 656.57,393.95000000000005" fill="#605a56"/><rect x="722.23" y="328.29" width="65.66" height="65.66" fill="#9d9271"/><polygon points="722.23,328.29 787.89,393.95000000000005 722.23,393.95000000000005" fill="#27303a"/><rect x="0" y="393.94" width="65.66" height="65.66" fill="#413026"/><path d="M 0 459.6 A 65.66 65.66 0 0 1  65.66 393.94 L 0 459.6 A 65.66 65.66 0 0 0 65.66 393.94" fill="#34292c"/><rect x="65.66" y="393.94" width="65.66" height="65.66" fill="#2e2630"/><path d="M 65.66 459.6 A 65.66 65.66 0 0 1  131.32 393.94 L 131.32 459.6L65.66 459.6" fill="#1d1c38"/><rect x="131.31" y="393.94" width="65.66" height="65.66" fill="#2f2c40"/><polygon points="196.97,393.94 196.97,459.6 131.31,459.6" fill="#665f59"/><rect x="196.97" y="393.94" width="65.66" height="65.66" fill="#3b2d29"/><rect x="196.97" y="393.94" width="65.66" height="65.66" fill="#2f3e3b"/><rect x="262.63" y="393.94" width="65.66" height="65.66" fill="#1d1d38"/><path d="M 262.63 393.94 A 65.66 65.66 0 0 0 328.28999999999996 459.6 L 328.28999999999996 393.94L262.63 393.94" fill="#443224"/><rect x="328.29" y="393.94" width="65.66" height="65.66" fill="#1d1c38"/><path d="M 328.29 459.6 A 65.66 65.66 0 0 0 393.95000000000005 393.94 L 328.29 393.94L328.29 459.6" fill="#ddcd8e"/><rect x="393.94" y="393.94" width="65.66" height="65.66" fill="#1d1c38"/><path d="M 393.94 393.94 A 65.66 65.66 0 0 0 459.6 459.6 L 459.6 393.94L393.94 393.94" fill="#27303a"/><rect x="459.6" y="393.94" width="65.66" height="65.66" fill="#514c4f"/><path d="M 459.6 393.94 A 65.66 65.66 0 0 1 525.26 459.6 L 459.6 459.6L459.6 393.94" fill="#2d3b3b"/><rect x="525.26" y="393.94" width="65.66" height="65.66" fill="#1d1c38"/><rect x="525.26" y="393.94" width="65.66" height="65.66" fill="#746c5f"/><rect x="590.91" y="393.94" width="65.66" height="65.66" fill="#1d1c38"/><rect x="590.91" y="393.94" width="65.66" height="65.66" fill="#1d1c38"/><rect x="656.57" y="393.94" width="65.66" height="65.66" fill="#1d1c38"/><path d="M 656.57 459.6 A 65.66 65.66 0 0 0 722.23 393.94 L 656.57 393.94L656.57 459.6" fill="#1d1c38"/><rect x="722.23" y="393.94" width="65.66" height="65.66" fill="#ebd994"/><path d="M 722.23 393.94 A 65.66 65.66 0 0 1 787.89 459.6 L 722.23 459.6L722.23 393.94" fill="#1d1c38"/></g></svg>