<?xml version="1.0" standalone="no"?><svg xmlns:xlink="http://www.w3.org/1999/xlink" xmlns="http://www.w3.org/2000/svg" viewBox="0 0 1000 583.3412660637792" preserveAspectRatio="xMaxYMax slice"><g transform="scale(1.2692368713311122)"><rect x="0" y="0" width="787.8857142857144" height="459.6" fill="#000000"/><rect x="0" y="0" width="65.66" height="65.66" fill="#660127"/><path d="M 0 65.66 A 65.66 65.66 0 0 0 65.66 0 L 0 0L0 65.66" fill="#300012"/><rect x="65.66" y="0" width="65.66" height="65.66" fill="#030001"/><path d="M 65.66 65.66 A 65.66 65.66 0 0 0 131.32 0 L 65.66 0L65.66 65.66" fill="#600125"/><rect x="131.31" y="0" width="65.66" height="65.66" fill="#5b0123"/><polygon points="131.31,0 196.97,0 196.97,65.66" fill="#110006"/><rect x="196.97" y="0" width="65.66" height="65.66" fill="#080003"/><path d="M 196.97 0 A 65.66 65.66 0 0 1 262.63 65.66 L 196.97 65.66L196.97 0" fill="#080003"/><rect x="262.63" y="0" width="65.66" height="65.66" fill="#5b0123"/><path d="M 262.63 65.66 A 65.66 65.66 0 0 0 328.28999999999996 0 L 262.63 0L262.63 65.66" fill="#030001"/><rect x="328.29" y="0" width="65.66" height="65.66" fill="#100006"/><polygon points="328.29,0 393.95000000000005,0 328.29,65.66" fill="#0d0005"/><rect x="393.94" y="0" width="65.66" height="65.66" fill="#100006"/><path d="M 393.94 65.66 A 65.66 65.66 0 0 0 459.6 0 L 393.94 0L393.94 65.66" fill="#0e0005"/><rect x="459.6" y="0" width="65.66" height="65.66" fill="#080003"/><polygon points="525.26,0 525.26,65.66 459.6,65.66" fill="#070003"/><rect x="525.26" y="0" width="65.66" height="65.66" fill="#090003"/><polygon points="525.26,0 590.92,65.66 525.26,65.66" fill="#090003"/><rect x="590.91" y="0" width="65.66" height="65.66" fill="#560121"/><path d="M 590.91 0 A 65.66 65.66 0 0 1 656.5699999999999 65.66 L 590.91 65.66L590.91 0" fill="#120006"/><rect x="656.57" y="0" width="65.66" height="65.66" fill="#010000"/><path d="M 656.57 0 A 65.66 65.66 0 0 1 722.23 65.66 L 656.57 65.66L656.57 0" fill="#100006"/><rect x="722.23" y="0" width="65.66" height="65.66" fill="#170009"/><rect x="722.23" y="0" width="65.66" height="65.66" fill="#0c0004"/><rect x="0" y="65.66" width="65.66" height="65.66" fill="#51011f"/><rect x="0" y="65.66" width="65.66" height="65.66" fill="#1c000b"/><rect x="65.66" y="65.66" width="65.66" height="65.66" fill="#0f0006"/><path d="M 65.66 131.32 A 65.66 65.66 0 0 0 131.32 65.66 L 65.66 65.66L65.66 131.32" fill="#540120"/><rect x="131.31" y="65.66" width="65.66" height="65.66" fill="#010000"/><rect x="131.31" y="65.66" width="65.66" height="65.66" fill="#0d0005"/><rect x="196.97" y="65.66" width="65.66" height="65.66" fill="#0d0005"/><polygon points="196.97,65.66 262.63,131.32 196.97,131.32" fill="#0b0004"/><rect x="262.63" y="65.66" width="65.66" height="65.66" fill="#0e0005"/><polygon points="262.63,65.66 328.28999999999996,65.66 262.63,131.32" fill="#070003"/><rect x="328.29" y="65.66" width="65.66" height="65.66" fill="#340014"/><rect x="328.29" y="65.66" width="65.66" height="65.66" fill="#030001"/><rect x="393.94" y="65.66" width="65.66" height="65.66" fill="#4d011e"/><path d="M 393.94 131.32 A 65.66 65.66 0 0 1  459.6 65.66 L 393.94 131.32 A 65.66 65.66 0 0 0 459.6 65.66" fill="#1b000a"/><rect x="459.6" y="65.66" width="65.66" height="65.66" fill="#050002"/><polygon points="459.6,65.66 525.26,131.32 459.6,131.32" fill="#0d0005"/><rect x="525.26" y="65.66" width="65.66" height="65.66" fill="#110006"/><rect x="525.26" y="65.66" width="65.66" height="65.66" fill="#130007"/><rect x="590.91" y="65.66" width="65.66" height="65.66" fill="#080003"/><path d="M 590.91 131.32 A 65.66 65.66 0 0 1  656.5699999999999 65.66 L 656.5699999999999 131.32L590.91 131.32" fill="#1a000a"/><rect x="656.57" y="65.66" width="65.66" height="65.66" fill="#100006"/><polygon points="722.23,65.66 722.23,131.32 656.57,131.32" fill="#22000d"/><rect x="722.23" y="65.66" width="65.66" height="65.66" fill="#110006"/><rect x="722.23" y="65.66" width="65.66" height="65.66" fill="#660127"/><rect x="0" y="131.31" width="65.66" height="65.66" fill="#0d0005"/><rect x="0" y="131.31" width="65.66" height="65.66" fill="#0f0006"/><rect x="65.66" y="131.31" width="65.66" height="65.66" fill="#0d0005"/><polygon points="131.32,131.31 131.32,196.97 65.66,196.97" fill="#0a0004"/><rect x="131.31" y="131.31" width="65.66" height="65.66" fill="#120007"/><path d="M 131.31 196.97 A 65.66 65.66 0 0 1  196.97 131.31 L 131.31 196.97 A 65.66 65.66 0 0 0 196.97 131.31" fill="#6d012a"/><rect x="196.97" y="131.31" width="65.66" height="65.66" fill="#0c0004"/><rect x="196.97" y="131.31" width="65.66" height="65.66" fill="#24000e"/><rect x="262.63" y="131.31" width="65.66" height="65.66" fill="#050002"/><rect x="262.63" y="131.31" width="65.66" height="65.66" fill="#0e0005"/><rect x="328.29" y="131.31" width="65.66" height="65.66" fill="#040001"/><path d="M 328.29 196.97 A 65.66 65.66 0 0 1  393.95000000000005 131.31 L 328.29 196.97 A 65.66 65.66 0 0 0 393.95000000000005 131.31" fill="#110006"/><rect x="393.94" y="131.31" width="65.66" height="65.66" fill="#670127"/><polygon points="459.6,131.31 459.6,196.97 393.94,196.97" fill="#300013"/><rect x="459.6" y="131.31" width="65.66" height="65.66" fill="#5c0123"/><path d="M 459.6 131.31 A 65.66 65.66 0 0 1  525.26 196.97 L 459.6 131.31 A 65.66 65.66 0 0 0 525.26 196.97" fill="#100006"/><rect x="525.26" y="131.31" width="65.66" height="65.66" fill="#120007"/><polygon points="590.92,131.31 590.92,196.97 525.26,196.97" fill="#070003"/><rect x="590.91" y="131.31" width="65.66" height="65.66" fill="#050002"/><path d="M 590.91 196.97 A 65.66 65.66 0 0 1  656.5699999999999 131.31 L 590.91 196.97 A 65.66 65.66 0 0 0 656.5699999999999 131.31" fill="#100006"/><rect x="656.57" y="131.31" width="65.66" height="65.66" fill="#350014"/><polygon points="656.57,131.31 722.23,131.31 656.57,196.97" fill="#1c000b"/><rect x="722.23" y="131.31" width="65.66" height="65.66" fill="#020001"/><rect x="722.23" y="131.31" width="65.66" height="65.66" fill="#090003"/><rect x="0" y="196.97" width="65.66" height="65.66" fill="#170009"/><path d="M 0 196.97 A 65.66 65.66 0 0 1  65.66 262.63 L 0 196.97 A 65.66 65.66 0 0 0 65.66 262.63" fill="#090003"/><rect x="65.66" y="196.97" width="65.66" height="65.66" fill="#090003"/><polygon points="65.66,196.97 131.32,196.97 131.32,262.63" fill="#160008"/><rect x="131.31" y="196.97" width="65.66" height="65.66" fill="#340014"/><rect x="131.31" y="196.97" width="65.66" height="65.66" fill="#100006"/><rect x="196.97" y="196.97" width="65.66" height="65.66" fill="#100006"/><polygon points="262.63,196.97 262.63,262.63 196.97,262.63" fill="#0d0005"/><rect x="262.63" y="196.97" width="65.66" height="65.66" fill="#330014"/><rect x="262.63" y="196.97" width="65.66" height="65.66" fill="#010000"/><rect x="328.29" y="196.97" width="65.66" height="65.66" fill="#030001"/><path d="M 328.29 262.63 A 65.66 65.66 0 0 1  393.95000000000005 196.97 L 328.29 262.63 A 65.66 65.66 0 0 0 393.95000000000005 196.97" fill="#5a0123"/><rect x="393.94" y="196.97" width="65.66" height="65.66" fill="#0c0004"/><rect x="393.94" y="196.97" width="65.66" height="65.66" fill="#130007"/><rect x="459.6" y="196.97" width="65.66" height="65.66" fill="#44011a"/><polygon points="525.26,196.97 525.26,262.63 459.6,262.63" fill="#400118"/><rect x="525.26" y="196.97" width="65.66" height="65.66" fill="#060002"/><path d="M 525.26 196.97 A 65.66 65.66 0 0 1  590.92 262.63 L 525.26 196.97 A 65.66 65.66 0 0 0 590.92 262.63" fill="#040002"/><rect x="590.91" y="196.97" width="65.66" height="65.66" fill="#050002"/><path d="M 590.91 262.63 A 65.66 65.66 0 0 1  656.5699999999999 196.97 L 590.91 262.63 A 65.66 65.66 0 0 0 656.5699999999999 196.97" fill="#060002"/><rect x="656.57" y="196.97" width="65.66" height="65.66" fill="#040002"/><path d="M 656.57 262.63 A 65.66 65.66 0 0 1  722.23 196.97 L 656.57 262.63 A 65.66 65.66 0 0 0 722.23 196.97" fill="#030001"/><rect x="722.23" y="196.97" width="65.66" height="65.66" fill="#5f0124"/><path d="M 722.23 196.97 A 65.66 65.66 0 0 0 787.89 262.63 L 787.89 196.97L722.23 196.97" fill="#110006"/><rect x="0" y="262.63" width="65.66" height="65.66" fill="#020001"/><polygon points="0,262.63 65.66,328.28999999999996 0,328.28999999999996" fill="#410119"/><rect x="65.66" y="262.63" width="65.66" height="65.66" fill="#010000"/><path d="M 65.66 262.63 A 65.66 65.66 0 0 1  131.32 328.28999999999996 L 65.66 262.63 A 65.66 65.66 0 0 0 131.32 328.28999999999996" fill="#080003"/><rect x="131.31" y="262.63" width="65.66" height="65.66" fill="#0f0006"/><path d="M 131.31 262.63 A 65.66 65.66 0 0 0 196.97 328.28999999999996 L 196.97 262.63L131.31 262.63" fill="#010000"/><rect x="196.97" y="262.63" width="65.66" height="65.66" fill="#030001"/><polygon points="196.97,262.63 262.63,262.63 262.63,328.28999999999996" fill="#100006"/><rect x="262.63" y="262.63" width="65.66" height="65.66" fill="#0c0004"/><path d="M 262.63 262.63 A 65.66 65.66 0 0 1 328.28999999999996 328.28999999999996 L 262.63 328.28999999999996L262.63 262.63" fill="#6b0129"/><rect x="328.29" y="262.63" width="65.66" height="65.66" fill="#0c0005"/><rect x="328.29" y="262.63" width="65.66" height="65.66" fill="#130007"/><rect x="393.94" y="262.63" width="65.66" height="65.66" fill="#2f0012"/><rect x="393.94" y="262.63" width="65.66" height="65.66" fill="#080003"/><rect x="459.6" y="262.63" width="65.66" height="65.66" fill="#090003"/><path d="M 459.6 262.63 A 65.66 65.66 0 0 0 525.26 328.28999999999996 L 525.26 262.63L459.6 262.63" fill="#020001"/><rect x="525.26" y="262.63" width="65.66" height="65.66" fill="#0b0004"/><rect x="525.26" y="262.63" width="65.66" height="65.66" fill="#5e0124"/><rect x="590.91" y="262.63" width="65.66" height="65.66" fill="#050002"/><rect x="590.91" y="262.63" width="65.66" height="65.66" fill="#580122"/><rect x="656.57" y="262.63" width="65.66" height="65.66" fill="#380116"/><rect x="656.57" y="262.63" width="65.66" height="65.66" fill="#290010"/><rect x="722.23" y="262.63" width="65.66" height="65.66" fill="#640126"/><polygon points="722.23,262.63 787.89,262.63 787.89,328.28999999999996" fill="#110006"/><rect x="0" y="328.29" width="65.66" height="65.66" fill="#5d0124"/><polygon points="0,328.29 65.66,393.95000000000005 0,393.95000000000005" fill="#4e011e"/><rect x="65.66" y="328.29" width="65.66" height="65.66" fill="#0a0004"/><path d="M 65.66 393.95000000000005 A 65.66 65.66 0 0 0 131.32 328.29 L 65.66 328.29L65.66 393.95000000000005" fill="#0e0005"/><rect x="131.31" y="328.29" width="65.66" height="65.66" fill="#3d0117"/><polygon points="131.31,328.29 196.97,328.29 196.97,393.95000000000005" fill="#670127"/><rect x="196.97" y="328.29" width="65.66" height="65.66" fill="#100006"/><polygon points="196.97,328.29 262.63,328.29 196.97,393.95000000000005" fill="#090003"/><rect x="262.63" y="328.29" width="65.66" height="65.66" fill="#030001"/><rect x="262.63" y="328.29" width="65.66" height="65.66" fill="#5c0123"/><rect x="328.29" y="328.29" width="65.66" height="65.66" fill="#090003"/><polygon points="328.29,328.29 393.95000000000005,328.29 328.29,393.95000000000005" fill="#540120"/><rect x="393.94" y="328.29" width="65.66" height="65.66" fill="#100006"/><polygon points="393.94,328.29 459.6,328.29 459.6,393.95000000000005" fill="#0a0004"/><rect x="459.6" y="328.29" width="65.66" height="65.66" fill="#290010"/><rect x="459.6" y="328.29" width="65.66" height="65.66" fill="#130007"/><rect x="525.26" y="328.29" width="65.66" height="65.66" fill="#020001"/><polygon points="590.92,328.29 590.92,393.95000000000005 525.26,393.95000000000005" fill="#080003"/><rect x="590.91" y="328.29" width="65.66" height="65.66" fill="#0c0004"/><polygon points="590.91,328.29 656.5699999999999,328.29 590.91,393.95000000000005" fill="#100006"/><rect x="656.57" y="328.29" width="65.66" height="65.66" fill="#060002"/><rect x="656.57" y="328.29" width="65.66" height="65.66" fill="#0f0006"/><rect x="722.23" y="328.29" width="65.66" height="65.66" fill="#0f0006"/><polygon points="722.23,328.29 787.89,328.29 787.89,393.95000000000005" fill="#570121"/><rect x="0" y="393.94" width="65.66" height="65.66" fill="#110006"/><polygon points="0,393.94 65.66,393.94 65.66,459.6" fill="#030001"/><rect x="65.66" y="393.94" width="65.66" height="65.66" fill="#0c0004"/><path d="M 65.66 393.94 A 65.66 65.66 0 0 1  131.32 459.6 L 65.66 393.94 A 65.66 65.66 0 0 0 131.32 459.6" fill="#6b0129"/><rect x="131.31" y="393.94" width="65.66" height="65.66" fill="#0a0004"/><polygon points="131.31,393.94 196.97,459.6 131.31,459.6" fill="#0f0006"/><rect x="196.97" y="393.94" width="65.66" height="65.66" fill="#120007"/><rect x="196.97" y="393.94" width="65.66" height="65.66" fill="#100006"/><rect x="262.63" y="393.94" width="65.66" height="65.66" fill="#650127"/><polygon points="328.28999999999996,393.94 328.28999999999996,459.6 262.63,459.6" fill="#47011b"/><rect x="328.29" y="393.94" width="65.66" height="65.66" fill="#4e011e"/><path d="M 328.29 459.6 A 65.66 65.66 0 0 1  393.95000000000005 393.94 L 393.95000000000005 459.6L328.29 459.6" fill="#090003"/><rect x="393.94" y="393.94" width="65.66" height="65.66" fill="#0f0005"/><rect x="393.94" y="393.94" width="65.66" height="65.66" fill="#120007"/><rect x="459.6" y="393.94" width="65.66" height="65.66" fill="#000000"/><rect x="459.6" y="393.94" width="65.66" height="65.66" fill="#040002"/><rect x="525.26" y="393.94" width="65.66" height="65.66" fill="#090003"/><rect x="525.26" y="393.94" width="65.66" height="65.66" fill="#070003"/><rect x="590.91" y="393.94" width="65.66" height="65.66" fill="#0f0006"/><polygon points="590.91,393.94 656.5699999999999,393.94 656.5699999999999,459.6" fill="#0c0004"/><rect x="656.57" y="393.94" width="65.66" height="65.66" fill="#130007"/><path d="M 656.57 393.94 A 65.66 65.66 0 0 0 722.23 459.6 L 722.23 393.94L656.57 393.94" fill="#360015"/><rect x="722.23" y="393.94" width="65.66" height="65.66" fill="#51011f"/><polygon points="722.23,393.94 787.89,393.94 722.23,459.6" fill="#040002"/></g></svg>