<svg id="visual" viewBox="0 0 900 600" width="900" height="600" xmlns="http://www.w3.org/2000/svg" xmlns:xlink="http://www.w3.org/1999/xlink" version="1.1"><rect x="0" y="0" width="900" height="600" fill="#130007"></rect><path d="M0 241L18.8 234C37.7 227 75.3 213 112.8 207.3C150.3 201.7 187.7 204.3 225.2 213.7C262.7 223 300.3 239 337.8 256.7C375.3 274.3 412.7 293.7 450.2 278.5C487.7 263.3 525.3 213.7 562.8 206.8C600.3 200 637.7 236 675.2 253.8C712.7 271.7 750.3 271.3 787.8 266.2C825.3 261 862.7 251 881.3 246L900 241L900 0L881.3 0C862.7 0 825.3 0 787.8 0C750.3 0 712.7 0 675.2 0C637.7 0 600.3 0 562.8 0C525.3 0 487.7 0 450.2 0C412.7 0 375.3 0 337.8 0C300.3 0 262.7 0 225.2 0C187.7 0 150.3 0 112.8 0C75.3 0 37.7 0 18.8 0L0 0Z" fill="#70012b"></path><path d="M0 139L18.8 159.2C37.7 179.3 75.3 219.7 112.8 233C150.3 246.3 187.7 232.7 225.2 214.3C262.7 196 300.3 173 337.8 182.2C375.3 191.3 412.7 232.7 450.2 244.7C487.7 256.7 525.3 239.3 562.8 233.3C600.3 227.3 637.7 232.7 675.2 227.5C712.7 222.3 750.3 206.7 787.8 207C825.3 207.3 862.7 223.7 881.3 231.8L900 240L900 0L881.3 0C862.7 0 825.3 0 787.8 0C750.3 0 712.7 0 675.2 0C637.7 0 600.3 0 562.8 0C525.3 0 487.7 0 450.2 0C412.7 0 375.3 0 337.8 0C300.3 0 262.7 0 225.2 0C187.7 0 150.3 0 112.8 0C75.3 0 37.7 0 18.8 0L0 0Z" fill="#5c0827"></path><path d="M0 120L18.8 119.2C37.7 118.3 75.3 116.7 112.8 117.7C150.3 118.7 187.7 122.3 225.2 127.2C262.7 132 300.3 138 337.8 146.7C375.3 155.3 412.7 166.7 450.2 175.3C487.7 184 525.3 190 562.8 178.8C600.3 167.7 637.7 139.3 675.2 131C712.7 122.7 750.3 134.3 787.8 142.3C825.3 150.3 862.7 154.7 881.3 156.8L900 159L900 0L881.3 0C862.7 0 825.3 0 787.8 0C750.3 0 712.7 0 675.2 0C637.7 0 600.3 0 562.8 0C525.3 0 487.7 0 450.2 0C412.7 0 375.3 0 337.8 0C300.3 0 262.7 0 225.2 0C187.7 0 150.3 0 112.8 0C75.3 0 37.7 0 18.8 0L0 0Z" fill="#480b22"></path><path d="M0 145L18.8 148.3C37.7 151.7 75.3 158.3 112.8 162.7C150.3 167 187.7 169 225.2 158.2C262.7 147.3 300.3 123.7 337.8 111C375.3 98.3 412.7 96.7 450.2 95.3C487.7 94 525.3 93 562.8 102.3C600.3 111.7 637.7 131.3 675.2 141C712.7 150.7 750.3 150.3 787.8 155.3C825.3 160.3 862.7 170.7 881.3 175.8L900 181L900 0L881.3 0C862.7 0 825.3 0 787.8 0C750.3 0 712.7 0 675.2 0C637.7 0 600.3 0 562.8 0C525.3 0 487.7 0 450.2 0C412.7 0 375.3 0 337.8 0C300.3 0 262.7 0 225.2 0C187.7 0 150.3 0 112.8 0C75.3 0 37.7 0 18.8 0L0 0Z" fill="#360c1c"></path><path d="M0 74L18.8 81.2C37.7 88.3 75.3 102.7 112.8 100.2C150.3 97.7 187.7 78.3 225.2 66.2C262.7 54 300.3 49 337.8 58C375.3 67 412.7 90 450.2 96.3C487.7 102.7 525.3 92.3 562.8 84.7C600.3 77 637.7 72 675.2 76.7C712.7 81.3 750.3 95.7 787.8 99.7C825.3 103.7 862.7 97.3 881.3 94.2L900 91L900 0L881.3 0C862.7 0 825.3 0 787.8 0C750.3 0 712.7 0 675.2 0C637.7 0 600.3 0 562.8 0C525.3 0 487.7 0 450.2 0C412.7 0 375.3 0 337.8 0C300.3 0 262.7 0 225.2 0C187.7 0 150.3 0 112.8 0C75.3 0 37.7 0 18.8 0L0 0Z" fill="#240914"></path><path d="M0 62L18.8 60.2C37.7 58.3 75.3 54.7 112.8 49.5C150.3 44.3 187.7 37.7 225.2 34.5C262.7 31.3 300.3 31.7 337.8 40C375.3 48.3 412.7 64.7 450.2 62.8C487.7 61 525.3 41 562.8 32.5C600.3 24 637.7 27 675.2 34.3C712.7 41.7 750.3 53.3 787.8 56.2C825.3 59 862.7 53 881.3 50L900 47L900 0L881.3 0C862.7 0 825.3 0 787.8 0C750.3 0 712.7 0 675.2 0C637.7 0 600.3 0 562.8 0C525.3 0 487.7 0 450.2 0C412.7 0 375.3 0 337.8 0C300.3 0 262.7 0 225.2 0C187.7 0 150.3 0 112.8 0C75.3 0 37.7 0 18.8 0L0 0Z" fill="#130007"></path></svg>