<svg id="visual" viewBox="0 0 900 600" width="900" height="600" xmlns="http://www.w3.org/2000/svg" xmlns:xlink="http://www.w3.org/1999/xlink" version="1.1"><rect x="0" y="0" width="900" height="600" fill="#1d1c38"></rect><path d="M0 484L16.7 470.2C33.3 456.3 66.7 428.7 100 415C133.3 401.3 166.7 401.7 200 402.2C233.3 402.7 266.7 403.3 300 406C333.3 408.7 366.7 413.3 400 412.7C433.3 412 466.7 406 500 407.2C533.3 408.3 566.7 416.7 600 426.5C633.3 436.3 666.7 447.7 700 448.5C733.3 449.3 766.7 439.7 800 436.2C833.3 432.7 866.7 435.3 883.3 436.7L900 438L900 601L883.3 601C866.7 601 833.3 601 800 601C766.7 601 733.3 601 700 601C666.7 601 633.3 601 600 601C566.7 601 533.3 601 500 601C466.7 601 433.3 601 400 601C366.7 601 333.3 601 300 601C266.7 601 233.3 601 200 601C166.7 601 133.3 601 100 601C66.7 601 33.3 601 16.7 601L0 601Z" fill="#f1df97"></path><path d="M0 511L16.7 509.3C33.3 507.7 66.7 504.3 100 495.5C133.3 486.7 166.7 472.3 200 473C233.3 473.7 266.7 489.3 300 486.7C333.3 484 366.7 463 400 460.7C433.3 458.3 466.7 474.7 500 483.3C533.3 492 566.7 493 600 493.7C633.3 494.3 666.7 494.7 700 494.5C733.3 494.3 766.7 493.7 800 487.3C833.3 481 866.7 469 883.3 463L900 457L900 601L883.3 601C866.7 601 833.3 601 800 601C766.7 601 733.3 601 700 601C666.7 601 633.3 601 600 601C566.7 601 533.3 601 500 601C466.7 601 433.3 601 400 601C366.7 601 333.3 601 300 601C266.7 601 233.3 601 200 601C166.7 601 133.3 601 100 601C66.7 601 33.3 601 16.7 601L0 601Z" fill="#c8b076"></path><path d="M0 521L16.7 516.2C33.3 511.3 66.7 501.7 100 498.2C133.3 494.7 166.7 497.3 200 501.2C233.3 505 266.7 510 300 514C333.3 518 366.7 521 400 518.2C433.3 515.3 466.7 506.7 500 496.7C533.3 486.7 566.7 475.3 600 470.8C633.3 466.3 666.7 468.7 700 476.3C733.3 484 766.7 497 800 496.8C833.3 496.7 866.7 483.3 883.3 476.7L900 470L900 601L883.3 601C866.7 601 833.3 601 800 601C766.7 601 733.3 601 700 601C666.7 601 633.3 601 600 601C566.7 601 533.3 601 500 601C466.7 601 433.3 601 400 601C366.7 601 333.3 601 300 601C266.7 601 233.3 601 200 601C166.7 601 133.3 601 100 601C66.7 601 33.3 601 16.7 601L0 601Z" fill="#9e8458"></path><path d="M0 529L16.7 527.5C33.3 526 66.7 523 100 527.8C133.3 532.7 166.7 545.3 200 548.7C233.3 552 266.7 546 300 543.3C333.3 540.7 366.7 541.3 400 543.5C433.3 545.7 466.7 549.3 500 548.5C533.3 547.7 566.7 542.3 600 536C633.3 529.7 666.7 522.3 700 521.2C733.3 520 766.7 525 800 522.3C833.3 519.7 866.7 509.3 883.3 504.2L900 499L900 601L883.3 601C866.7 601 833.3 601 800 601C766.7 601 733.3 601 700 601C666.7 601 633.3 601 600 601C566.7 601 533.3 601 500 601C466.7 601 433.3 601 400 601C366.7 601 333.3 601 300 601C266.7 601 233.3 601 200 601C166.7 601 133.3 601 100 601C66.7 601 33.3 601 16.7 601L0 601Z" fill="#745b3b"></path><path d="M0 576L16.7 573.5C33.3 571 66.7 566 100 566.7C133.3 567.3 166.7 573.7 200 571.3C233.3 569 266.7 558 300 555.8C333.3 553.7 366.7 560.3 400 562.3C433.3 564.3 466.7 561.7 500 564.3C533.3 567 566.7 575 600 571.2C633.3 567.3 666.7 551.7 700 547.7C733.3 543.7 766.7 551.3 800 556.5C833.3 561.7 866.7 564.3 883.3 565.7L900 567L900 601L883.3 601C866.7 601 833.3 601 800 601C766.7 601 733.3 601 700 601C666.7 601 633.3 601 600 601C566.7 601 533.3 601 500 601C466.7 601 433.3 601 400 601C366.7 601 333.3 601 300 601C266.7 601 233.3 601 200 601C166.7 601 133.3 601 100 601C66.7 601 33.3 601 16.7 601L0 601Z" fill="#4b3621"></path></svg>